<?xml version="1.0" encoding="UTF-8"?>
<svg version="1.1" xmlns="http://www.w3.org/2000/svg" width="500" height="500">
<path d="M0 0 C5.00466408 3.62838146 9.51894526 7.86933578 11.5 13.8125 C12.93096923 23.7206034 9.3117022 31.90966002 5.5 40.8125 C5.0978125 41.75222656 4.695625 42.69195312 4.28125 43.66015625 C3.63581614 45.12460657 2.98102972 46.58501036 2.3125 48.0390625 C1.29258563 50.26522175 0.38381584 52.52930908 -0.5 54.8125 C-1.16 54.8125 -1.82 54.8125 -2.5 54.8125 C-2.70625 55.988125 -2.9125 57.16375 -3.125 58.375 C-4.70176994 65.48723888 -7.69663866 72.11636981 -10.5 78.8125 C-11.15742187 80.40191406 -11.15742187 80.40191406 -11.828125 82.0234375 C-12.64532381 83.99402451 -13.46688041 85.9628105 -14.29296875 87.9296875 C-15.09611107 89.84787208 -15.89043297 91.7697742 -16.67578125 93.6953125 C-18.90103141 99.13159139 -21.26869375 104.45472984 -23.8125 109.75 C-27.57171881 117.62695187 -30.59754088 125.75338382 -33.65625 133.921875 C-35.79015345 139.61662142 -38.09801134 145.22593927 -40.5 150.8125 C-41.22316406 152.50052734 -41.22316406 152.50052734 -41.9609375 154.22265625 C-42.98212868 156.60457171 -44.00425524 158.98608637 -45.02734375 161.3671875 C-46.80648842 165.52953656 -48.55162588 169.7051998 -50.28515625 173.88671875 C-51.10027593 175.84982048 -51.92066023 177.81074387 -52.74609375 179.76953125 C-54.93930945 184.98268882 -57.05232251 190.21329468 -59.0625 195.5 C-61.04205647 200.69014962 -63.18483622 205.7646839 -65.5 210.8125 C-68.77968609 218.00479406 -71.78248101 225.3030725 -74.77734375 232.6171875 C-76.16447878 236.00358487 -77.57717445 239.37841999 -79 242.75 C-80.77698194 246.98786812 -82.44566574 251.25880437 -84.08642578 255.55053711 C-86.56192465 262.01845598 -89.07503386 268.32127722 -92.32421875 274.44921875 C-93.71199493 277.23860278 -94.80968017 280.09631148 -95.9375 283 C-98.41155415 289.02614443 -101.21436846 293.82382828 -106.875 297.25 C-112.44709736 298.44402086 -117.3197458 298.4026271 -122.5 295.8125 C-122.5 295.1525 -122.5 294.4925 -122.5 293.8125 C-123.139375 293.544375 -123.77875 293.27625 -124.4375 293 C-126.5 291.8125 -126.5 291.8125 -127.5 288.8125 C-128.36625 288.379375 -128.36625 288.379375 -129.25 287.9375 C-133.31131482 285.90684259 -136.06796301 283.10861097 -137.5 278.8125 C-138.16 278.4825 -138.82 278.1525 -139.5 277.8125 C-141.5 276.8125 -141.5 276.8125 -142.5 273.8125 C-143.056875 273.544375 -143.61375 273.27625 -144.1875 273 C-147.53764163 271.279657 -150.12425507 268.72674712 -152.5 265.8125 C-152.5 265.1525 -152.5 264.4925 -152.5 263.8125 C-153.056875 263.585625 -153.61375 263.35875 -154.1875 263.125 C-158.18438886 260.85649551 -161.03966649 258.19350054 -162.5 253.8125 C-163.16 253.4825 -163.82 253.1525 -164.5 252.8125 C-166.5 251.8125 -166.5 251.8125 -167.5 248.8125 C-168.81867915 248.11729677 -170.154095 247.45340714 -171.5 246.8125 C-175.48071292 243.11748418 -178.4624368 239.23088558 -179.5 233.8125 C-178.97829632 225.63914235 -174.59172146 218.06723304 -169.5 211.8125 C-168.84 211.8125 -168.18 211.8125 -167.5 211.8125 C-167.231875 210.843125 -166.96375 209.87375 -166.6875 208.875 C-166.295625 207.864375 -165.90375 206.85375 -165.5 205.8125 C-164.51 205.4825 -163.52 205.1525 -162.5 204.8125 C-161.80959426 203.15552621 -161.1469365 201.4869239 -160.5 199.8125 C-159.901875 199.07 -159.30375 198.3275 -158.6875 197.5625 C-156.82388388 195.21966831 -155.52250193 193.11975442 -154.125 190.5 C-152.1225393 186.80361484 -149.88455467 183.565856 -147.30859375 180.25390625 C-144.40931859 176.34019789 -141.76761605 172.25494625 -139.1027832 168.17919922 C-136.72667597 164.56691527 -134.21697554 161.18110788 -131.5 157.8125 C-130.27193798 156.01330869 -129.06457849 154.19986402 -127.875 152.375 C-124.8275913 147.7556505 -121.67930571 143.2345389 -118.4375 138.75 C-114.85817053 133.78645556 -111.47363985 128.74684265 -108.23046875 123.5546875 C-105.08771003 118.57451454 -101.7820003 113.70154873 -98.5 108.8125 C-97.51 107.3275 -97.51 107.3275 -96.5 105.8125 C-102.54544942 109.12774646 -107.8445451 113.59962092 -113.125 118 C-115.49476705 119.80850643 -117.95548332 121.24648318 -120.55859375 122.69140625 C-125.28416104 125.42025497 -129.76851736 128.56352051 -134.19140625 131.75390625 C-135.51978516 132.71103516 -135.51978516 132.71103516 -136.875 133.6875 C-138.09316406 134.58082031 -138.09316406 134.58082031 -139.3359375 135.4921875 C-141.5 136.8125 -141.5 136.8125 -144.5 136.8125 C-144.83 137.8025 -145.16 138.7925 -145.5 139.8125 C-147.5 140.47916667 -149.5 141.14583333 -151.5 141.8125 C-151.83 142.8025 -152.16 143.7925 -152.5 144.8125 C-156.83333333 147.8125 -156.83333333 147.8125 -159.5 147.8125 C-159.5 148.4725 -159.5 149.1325 -159.5 149.8125 C-161.60019014 151.28559111 -163.67767729 152.62559635 -165.875 153.9375 C-166.47828125 154.31003906 -167.0815625 154.68257812 -167.703125 155.06640625 C-172.22965316 157.8125 -172.22965316 157.8125 -174.5 157.8125 C-174.5 158.4725 -174.5 159.1325 -174.5 159.8125 C-176.3170333 160.978144 -178.14145051 162.133458 -179.99609375 163.23828125 C-183.88563953 165.68365871 -187.51215865 168.47486466 -191.1796875 171.23828125 C-193.5 172.8125 -193.5 172.8125 -195.5 172.8125 C-195.5 173.4725 -195.5 174.1325 -195.5 174.8125 C-196.03367187 175.09222656 -196.56734375 175.37195313 -197.1171875 175.66015625 C-202.46098918 178.53545438 -207.36202362 181.74733231 -212.23828125 185.359375 C-216.68687166 188.21753671 -221.31617085 188.19764393 -226.5 187.8125 C-231.31288266 186.63862618 -235.1401214 183.37571419 -238.5 179.8125 C-238.5 179.1525 -238.5 178.4925 -238.5 177.8125 C-239.221875 177.585625 -239.94375 177.35875 -240.6875 177.125 C-244.08457087 175.53970026 -246.0749552 173.65326677 -248.5 170.8125 C-248.5 169.8225 -248.5 168.8325 -248.5 167.8125 C-249.139375 167.544375 -249.77875 167.27625 -250.4375 167 C-252.5 165.8125 -252.5 165.8125 -253.5 162.8125 C-254.0775 162.52375 -254.655 162.235 -255.25 161.9375 C-259.31131482 159.90684259 -262.06796301 157.10861097 -263.5 152.8125 C-264.551875 152.4721875 -264.551875 152.4721875 -265.625 152.125 C-269.37426942 150.413377 -271.25723179 147.92535293 -273.8515625 144.78515625 C-275.44215444 142.80581172 -275.44215444 142.80581172 -277.2109375 141.18359375 C-278.5 139.8125 -278.5 139.8125 -278.5 137.8125 C-279.36625 137.4721875 -279.36625 137.4721875 -280.25 137.125 C-284.06083774 134.90201132 -286.11929664 131.95461008 -287.5 127.8125 C-288.03073793 121.88252431 -288.11245237 116.77962201 -284.5 111.8125 C-279.90150225 107.32427797 -275.41413994 105.30242522 -269.28125 103.6953125 C-266.09694759 102.68456482 -263.33720541 101.29581107 -260.375 99.75 C-250.07615404 94.38342827 -239.24570677 90.18809801 -228.5 85.8125 C-226.95568879 85.17848375 -225.41141362 84.54437973 -223.8671875 83.91015625 C-218.12919982 81.57321792 -212.46443698 79.51070775 -206.5 77.8125 C-205.00502045 77.22633009 -203.52274533 76.60551393 -202.0625 75.9375 C-201.29679687 75.58816406 -200.53109375 75.23882812 -199.7421875 74.87890625 C-197.70514508 73.910069 -195.69481298 72.90364379 -193.6875 71.875 C-188.42231116 69.21143388 -182.95721125 67.04724035 -177.5 64.8125 C-176.18182589 64.2589203 -174.86413946 63.70417829 -173.546875 63.1484375 C-166.26477664 60.09078901 -158.96493442 57.20796802 -151.5 54.625 C-145.68782435 52.60972302 -140.04780107 50.47264436 -134.5 47.8125 C-120.01503059 40.87625984 -105.4044479 34.77290982 -90.28369141 29.34741211 C-82.36936419 26.48205549 -74.79011069 22.97273817 -67.1875 19.375 C-55.68649054 13.99276121 -43.94492262 9.4296819 -32.03930664 5.02197266 C-31.04020264 4.65120605 -30.04109863 4.28043945 -29.01171875 3.8984375 C-27.57469604 3.36549072 -27.57469604 3.36549072 -26.10864258 2.82177734 C-23.91855069 1.97443622 -21.8063375 1.05417158 -19.6796875 0.0625 C-13.41685212 -2.39954831 -6.33058365 -2.1478766 0 0 Z " fill="#FFFFFF" transform="translate(380.5,94.1875)"/>
<path d="M0 0 C2.24839981 1.54425732 4.02965538 3.078914 6 5 C6 5.66 6 6.32 6 7 C6.66 7 7.32 7 8 7 C13.38092429 14.91375261 12.58151838 23.53097802 12.53125 32.71875 C12.53395012 34.46260799 12.53783685 36.2064645 12.54284668 37.95031738 C12.54872978 41.60178998 12.54022575 45.25287011 12.52148438 48.90429688 C12.49883128 53.53928118 12.51173807 58.17333177 12.53577423 62.80828094 C12.55038131 66.41189316 12.54555657 70.01529232 12.53526306 73.61891174 C12.53262958 75.32499812 12.53574375 77.03110505 12.54518127 78.73716736 C12.62929443 98.23314368 7.81340365 114.08753839 -2 131 C-2.66 131 -3.32 131 -4 131 C-4.10183594 131.57105469 -4.20367187 132.14210938 -4.30859375 132.73046875 C-6.63415977 140.36410635 -14.06101254 146.09946025 -20 151 C-20.64582031 151.58265625 -21.29164063 152.1653125 -21.95703125 152.765625 C-22.56933594 153.31734375 -23.18164062 153.8690625 -23.8125 154.4375 C-24.62654297 155.17806641 -24.62654297 155.17806641 -25.45703125 155.93359375 C-27 157 -27 157 -30 157 C-30.33 157.99 -30.66 158.98 -31 160 C-33.64780112 161.47100062 -36.251273 162.74572651 -39 164 C-39.79664063 164.40476562 -40.59328125 164.80953125 -41.4140625 165.2265625 C-55.53674774 172.18123831 -69.32888094 173.61672876 -84.78125 173.53125 C-86.53283909 173.53395372 -88.28442671 173.53784339 -90.03601074 173.54284668 C-93.67324378 173.54868801 -97.31007938 173.54034628 -100.94726562 173.52148438 C-105.59177045 173.49856068 -110.23535718 173.51193593 -114.87982941 173.53577423 C-118.48310208 173.55026248 -122.08615851 173.54561474 -125.68943787 173.53526306 C-127.40213635 173.53261119 -129.114855 173.53581084 -130.82752991 173.54518127 C-147.21230382 173.61526675 -147.21230382 173.61526675 -154 169 C-154 168.34 -154 167.68 -154 167 C-154.86625 166.6596875 -154.86625 166.6596875 -155.75 166.3125 C-159.73845176 163.98590314 -161.61689291 161.12069048 -163.09765625 156.7890625 C-165.21242139 147.90887987 -165.30932374 138.17285536 -161 130 C-157.23104744 124.17525513 -152.5756584 121.20093933 -146 119 C-140.34690946 118.27777671 -134.7463871 118.2765933 -129.0546875 118.29296875 C-127.43228313 118.27983149 -125.80989504 118.2645211 -124.18753052 118.24714661 C-119.949374 118.20752016 -115.71164751 118.19712073 -111.47332764 118.19311523 C-107.13573343 118.18374128 -102.79838747 118.14630142 -98.4609375 118.11132812 C-89.97395344 118.04698037 -81.48721658 118.01355357 -73 118 C-73 117.34 -73 116.68 -73 116 C-72.21753906 115.81824219 -71.43507813 115.63648438 -70.62890625 115.44921875 C-69.61699219 115.19785156 -68.60507812 114.94648438 -67.5625 114.6875 C-66.55316406 114.44386719 -65.54382813 114.20023437 -64.50390625 113.94921875 C-63.67761719 113.63597656 -62.85132813 113.32273437 -62 113 C-61.505 111.515 -61.505 111.515 -61 110 C-60.13375 109.5978125 -60.13375 109.5978125 -59.25 109.1875 C-55.05873798 106.97544504 -52.58115209 102.87172814 -50 99 C-49.34 99 -48.68 99 -48 99 C-47.01 95.37 -46.02 91.74 -45 88 C-44.34 88 -43.68 88 -43 88 C-42.99857498 87.10765656 -42.99714996 86.21531311 -42.99568176 85.29592896 C-42.97778992 76.85171858 -42.93599393 68.40802811 -42.86790943 59.96406746 C-42.8337411 55.62376231 -42.80854538 51.28380534 -42.80444336 46.94335938 C-42.80013844 42.74791607 -42.77149612 38.55325686 -42.72656822 34.35805893 C-42.71366281 32.76428687 -42.70926067 31.17042065 -42.71384621 29.57660294 C-42.73360248 20.61789154 -42.62641218 12.4851466 -37 5 C-27.18782425 -4.36146492 -12.09019592 -6.37483058 0 0 Z " fill="#FFFFFF" transform="translate(488,327)"/>
<path d="M0 0 C7.8587695 8.49596702 9.17922966 16.9089192 9.046875 28.15234375 C9.0530692 29.54278606 9.06218241 30.93321807 9.07403564 32.32362366 C9.09857421 35.95732752 9.08964123 39.5901039 9.07147217 43.22381592 C9.04792875 49.03263352 9.07560196 54.84139671 9.10419464 60.65014839 C9.10922492 62.65502704 9.09852486 64.65992589 9.08734131 66.66477966 C9.09205376 78.31552124 9.65629836 88.64800735 16.3125 98.5 C16.910625 99.386875 17.50875 100.27375 18.125 101.1875 C20.72984889 103.94119739 23.59190409 106.0162302 26.703125 108.16796875 C27.23421875 108.60753906 27.7653125 109.04710937 28.3125 109.5 C28.3125 110.16 28.3125 110.82 28.3125 111.5 C31.9425 112.49 35.5725 113.48 39.3125 114.5 C39.3125 115.16 39.3125 115.82 39.3125 116.5 C40.63555397 116.50546844 40.63555397 116.50546844 41.9853363 116.51104736 C50.32680887 116.54902644 58.66789439 116.60599121 67.00909328 116.68390274 C71.29668573 116.72329184 75.58407543 116.75552203 79.87182617 116.77099609 C84.01531988 116.78621955 88.1582559 116.82076461 92.30150032 116.86830902 C93.87655838 116.88306451 95.45169609 116.89103765 97.02682304 116.89188385 C106.94605319 116.90256518 115.22677556 117.20538825 123.125 123.875 C130.52576672 132.75592007 131.0467793 140.14489514 130.3125 151.5 C129.65002761 154.31550767 128.8036837 155.94368509 127.3125 158.5 C126.735 159.53125 126.1575 160.5625 125.5625 161.625 C121.75654418 166.48816577 117.1676229 169.54973214 111.3125 171.5 C108.75909345 171.69588113 106.31481684 171.79386033 103.76269531 171.79052734 C103.01874008 171.79724457 102.27478485 171.80396179 101.50828552 171.81088257 C99.05233018 171.82984906 96.59664903 171.83378797 94.140625 171.8359375 C92.41729626 171.84237313 90.6939686 171.84910205 88.97064209 171.85610962 C85.35263547 171.86808388 81.73472425 171.87179097 78.11669922 171.87060547 C73.52775186 171.87040382 68.93943464 171.89754356 64.35063553 171.93214989 C60.78476279 171.95464177 57.2190354 171.95843606 53.65309906 171.95738602 C51.96456511 171.95971489 50.27602541 171.96838125 48.58756256 171.98405075 C32.21290551 172.12161515 17.72246276 169.79127088 3.3125 161.5 C2.55710938 161.07976562 1.80171875 160.65953125 1.0234375 160.2265625 C-0.55841777 159.33795058 -2.12547052 158.42301742 -3.6875 157.5 C-3.6875 156.84 -3.6875 156.18 -3.6875 155.5 C-4.24953125 155.40589844 -4.8115625 155.31179688 -5.390625 155.21484375 C-8.25281831 154.3240591 -10.08520461 152.91128118 -12.4375 151.0625 C-13.23671875 150.44503906 -14.0359375 149.82757813 -14.859375 149.19140625 C-15.76429687 148.35416016 -15.76429687 148.35416016 -16.6875 147.5 C-16.6875 146.84 -16.6875 146.18 -16.6875 145.5 C-17.28820312 145.23445312 -17.88890625 144.96890625 -18.5078125 144.6953125 C-22.08008157 142.73632624 -24.17779419 139.64808484 -26.6875 136.5 C-27.17347656 135.92378906 -27.65945312 135.34757813 -28.16015625 134.75390625 C-33.10891227 128.61744878 -36.37669638 121.61061214 -39.6875 114.5 C-40.20957031 113.40816406 -40.73164062 112.31632812 -41.26953125 111.19140625 C-45.42868074 100.36386832 -44.99804984 89.34712942 -44.98828125 77.921875 C-44.99217399 76.02239896 -44.99650984 74.12292378 -45.00126648 72.22344971 C-45.00869546 68.25961471 -45.00845998 64.29586886 -45.00317383 60.33203125 C-44.9973593 55.25910972 -45.01437402 50.18655094 -45.0375185 45.11368942 C-45.0522579 41.19828163 -45.05312767 37.28296144 -45.05000877 33.36753082 C-45.05052108 31.49687222 -45.05574178 29.62620861 -45.06582069 27.75557709 C-45.07818274 25.14247503 -45.07139688 22.5300832 -45.05981445 19.91699219 C-45.07128006 18.76667007 -45.07128006 18.76667007 -45.08297729 17.59310913 C-45.02495398 11.65856936 -43.61026226 7.6612444 -39.671875 3.234375 C-28.3362674 -6.83291287 -13.19817422 -7.36642282 0 0 Z " fill="#FFFFFF" transform="translate(44.6875,328.5)"/>
<path d="M0 0 C0.81383652 -0.00671722 1.62767303 -0.01343445 2.46617126 -0.02035522 C5.15418643 -0.03933146 7.84195131 -0.04326078 10.5300293 -0.04541016 C12.41269531 -0.05184386 14.29536034 -0.05857264 16.17802429 -0.06558228 C20.12977407 -0.07755807 24.08143648 -0.08126334 28.03320312 -0.08007812 C33.05493309 -0.07987619 38.07608914 -0.10704659 43.09768391 -0.14162254 C46.99206519 -0.16406707 50.8863129 -0.16791016 54.78075218 -0.16685867 C56.62920271 -0.1691934 58.47765815 -0.17789437 60.32604408 -0.19352341 C80.22147379 -0.34584524 95.26744123 3.58811198 111.86206055 14.98583984 C113.89090361 16.39399958 113.89090361 16.39399958 116.54174805 17.85302734 C120.86524408 20.61526092 123.5312039 23.76943904 125.79174805 28.29052734 C126.78174805 28.62052734 127.77174805 28.95052734 128.79174805 29.29052734 C130.6159668 31.25146484 130.6159668 31.25146484 132.47924805 33.66552734 C133.10186523 34.45701172 133.72448242 35.24849609 134.3659668 36.06396484 C135.79174805 38.29052734 135.79174805 38.29052734 135.79174805 41.29052734 C136.78174805 41.62052734 137.77174805 41.95052734 138.79174805 42.29052734 C140.22924805 44.85302734 140.22924805 44.85302734 141.79174805 48.29052734 C142.43622563 49.5204054 143.08213923 50.74953169 143.72924805 51.97802734 C150.78814797 66.17696398 152.11402693 79.65510322 152.12768555 95.26708984 C152.1341244 97.00483303 152.14085354 98.74257516 152.14785767 100.48031616 C152.15977429 104.10620641 152.16354392 107.73200174 152.16235352 111.35791016 C152.16214975 115.98906992 152.18953661 120.61962008 152.22389793 125.25063515 C152.24619158 128.83329029 152.25019043 132.4157987 152.24913406 135.99851608 C152.25148303 137.70565278 152.26026665 139.41279395 152.2757988 141.1198616 C152.41094524 157.49452941 152.41094524 157.49452941 147.79174805 164.29052734 C147.21424805 165.17740234 146.63674805 166.06427734 146.04174805 166.97802734 C141.08820805 172.06916568 135.69222946 175.08623904 128.5847168 175.45849609 C119.86606458 175.50572606 112.59622816 175.32459455 105.43237305 169.91943359 C99.70016458 164.22816947 97.68218266 157.17896088 97.58642578 149.34057617 C97.57652618 148.63788101 97.56662659 147.93518585 97.556427 147.2111969 C97.52485571 144.89001833 97.50007192 142.5688193 97.4753418 140.24755859 C97.45476849 138.63758311 97.43377192 137.02761298 97.41236877 135.41764832 C97.35718699 131.18116597 97.30776055 126.94463518 97.25952148 122.70806885 C97.20927803 118.38459973 97.15360681 114.06120091 97.09838867 109.73779297 C96.99085471 101.25543054 96.88939918 92.77300928 96.79174805 84.29052734 C96.13174805 84.29052734 95.47174805 84.29052734 94.79174805 84.29052734 C93.80174805 80.66052734 92.81174805 77.03052734 91.79174805 73.29052734 C91.13174805 73.29052734 90.47174805 73.29052734 89.79174805 73.29052734 C89.23487305 72.26958984 89.23487305 72.26958984 88.66674805 71.22802734 C83.67192437 63.40280358 75.40223612 58.40074 66.79174805 55.29052734 C59.04272244 54.1394903 51.37532315 54.17230479 43.5534668 54.18505859 C40.76633347 54.17416184 37.97924339 54.15670712 35.19213867 54.14013672 C30.83433272 54.11589215 26.47700465 54.1000797 22.11914062 54.11547852 C18.56807813 54.12724616 15.01817641 54.10947615 11.46729469 54.07303429 C9.48682117 54.06042998 7.50622694 54.0783141 5.52580261 54.09712219 C-3.16385341 53.98181161 -10.00743495 52.33584467 -17.20825195 47.29052734 C-23.98946619 39.68843526 -24.53552753 32.66007342 -24.41137695 22.72802734 C-23.93156077 14.60806123 -20.67547985 10.17717207 -15.34106445 4.17333984 C-10.72406809 0.09752987 -5.92849973 -0.00706054 0 0 Z " fill="#FFFFFF" transform="translate(348.208251953125,-0.29052734375)"/>
<path d="M0 0 C1.89182725 -0.00457023 3.78365284 -0.00987829 5.67547607 -0.0158844 C9.61900631 -0.02476944 13.56233348 -0.02244243 17.50585938 -0.01245117 C22.54501807 -0.00092388 27.58347989 -0.02125389 32.62254715 -0.05036831 C36.52089843 -0.06875154 40.41908297 -0.06843435 44.31746674 -0.06273079 C46.1753106 -0.06257807 48.03316611 -0.06858152 49.89096832 -0.08102226 C52.48927712 -0.09598401 55.08630039 -0.08522065 57.68457031 -0.06811523 C58.81939346 -0.08261719 58.81939346 -0.08261719 59.97714233 -0.09741211 C65.6665983 -0.01940706 69.35612719 1.62385214 74.296875 4.43359375 C74.296875 5.09359375 74.296875 5.75359375 74.296875 6.43359375 C74.874375 6.61921875 75.451875 6.80484375 76.046875 6.99609375 C79.7276544 9.34770281 81.53252628 13.14551088 82.8984375 17.234375 C84.27545849 24.83499083 84.05400041 33.19613955 81.296875 40.43359375 C80.636875 40.43359375 79.976875 40.43359375 79.296875 40.43359375 C79.235 40.99046875 79.173125 41.54734375 79.109375 42.12109375 C77.46560057 46.79952867 73.79384182 49.39987351 69.49707031 51.55395508 C63.18818972 54.25738678 56.86009153 54.01781626 50.09375 54.0078125 C48.72526289 54.02029414 47.35679164 54.03463828 45.98834229 54.05073547 C42.40294057 54.08854814 38.81781348 54.10390265 35.23223877 54.11352539 C30.20411963 54.13093879 25.17618646 54.17839574 20.14825439 54.22358704 C17.48011142 54.24756565 14.81252668 54.26176902 12.14422607 54.27043152 C4.15294402 54.31608684 -3.74464163 54.70619819 -11.703125 55.43359375 C-11.703125 56.09359375 -11.703125 56.75359375 -11.703125 57.43359375 C-13.25 58.02140625 -13.25 58.02140625 -14.828125 58.62109375 C-17.61634505 59.79746245 -19.73282589 61.13703131 -22.015625 63.12109375 C-24.703125 65.43359375 -24.703125 65.43359375 -26.703125 65.43359375 C-26.950625 66.17609375 -27.198125 66.91859375 -27.453125 67.68359375 C-28.703125 70.43359375 -28.703125 70.43359375 -30.703125 72.37109375 C-33.12603677 74.86972152 -33.79718122 77.1117999 -34.703125 80.43359375 C-35.363125 80.43359375 -36.023125 80.43359375 -36.703125 80.43359375 C-37.55309062 89.68427937 -37.83629512 98.84648631 -37.84375 108.1328125 C-37.8598304 110.91604107 -37.88159996 113.6992246 -37.90234375 116.48242188 C-37.93266464 120.81394352 -37.95543534 125.14516846 -37.95361328 129.47680664 C-37.95282109 133.01941782 -37.97637507 136.56116963 -38.0154953 140.10355568 C-38.03082876 142.07855593 -38.02068719 144.05370238 -38.00982666 146.0287323 C-38.13421965 155.26300395 -39.95824908 162.62991866 -46.328125 169.55859375 C-48.703125 171.43359375 -48.703125 171.43359375 -51.703125 171.43359375 C-51.703125 172.09359375 -51.703125 172.75359375 -51.703125 173.43359375 C-59.19311791 176.28692438 -69.15565204 177.26660168 -76.703125 174.18359375 C-79.83105343 172.35896883 -82.81343644 170.61848022 -85.703125 168.43359375 C-85.703125 167.77359375 -85.703125 167.11359375 -85.703125 166.43359375 C-86.693125 166.10359375 -87.683125 165.77359375 -88.703125 165.43359375 C-91.57364466 160.19368392 -92.14233392 155.88205484 -92.10717773 149.98242188 C-92.11404099 149.16668701 -92.12090424 148.35095215 -92.12797546 147.51049805 C-92.14619036 144.82843318 -92.14241037 142.14695691 -92.13671875 139.46484375 C-92.14128617 137.5826397 -92.14659341 135.70043731 -92.15260315 133.8182373 C-92.16152623 129.8741987 -92.15912389 125.9303626 -92.14916992 121.98632812 C-92.13773707 116.97125169 -92.15780817 111.95688536 -92.18708706 106.94190216 C-92.20558853 103.05183578 -92.20512813 99.16193475 -92.19944954 95.27183533 C-92.19929772 93.4253592 -92.20522453 91.57887084 -92.21774101 89.73243713 C-92.30104291 75.41831098 -91.04313794 62.36742536 -83.890625 49.62109375 C-83.37568481 48.69901123 -83.37568481 48.69901123 -82.8503418 47.75830078 C-77.31404355 38.01533285 -71.06084355 30.14060622 -62.44921875 22.9609375 C-60.63963856 21.42632099 -60.63963856 21.42632099 -58.8984375 19.52734375 C-56.21054974 16.96380667 -53.26254686 14.9801427 -50.140625 12.99609375 C-49.52074707 12.60212402 -48.90086914 12.2081543 -48.26220703 11.80224609 C-32.62665971 2.04460317 -18.06539558 -0.0384506 0 0 Z " fill="#FFFFFF" transform="translate(91.703125,-0.43359375)"/>
</svg>
