<?xml version="1.0" encoding="UTF-8"?>
<svg version="1.1" xmlns="http://www.w3.org/2000/svg" width="600" height="600">
<path d="M0 0 C7.011275 3.90552011 9.93389841 8.81416435 13.4296875 15.83203125 C13.93806152 16.82968506 14.44643555 17.82733887 14.97021484 18.85522461 C21.19120475 31.1901386 26.99862442 43.72840905 32.83297729 56.24925232 C36.49270153 64.09747244 40.20261788 71.92167217 43.91577148 79.74472046 C52.0094641 96.79894624 60.05653409 113.87487689 68.08691406 130.95898438 C70.0724633 135.18281156 72.05948214 139.40594627 74.046875 143.62890625 C74.37773102 144.33200424 74.70858704 145.03510223 75.04946899 145.75950623 C76.71148699 149.29125021 78.37406144 152.82273063 80.03759766 156.35375977 C83.1208993 162.89988355 86.19922356 169.44819629 89.2590332 176.00534058 C90.68040992 179.05049759 92.1047521 182.09426343 93.52929688 185.13793945 C94.19743319 186.56759209 94.86417022 187.99789976 95.52929688 189.42895508 C99.19150441 197.30742062 103.01753747 205.0435688 107.1542511 212.68406677 C110.44846205 218.80108171 113.36618576 225.07101461 116.2421875 231.39453125 C117.36947233 233.84842176 118.49792092 236.30172425 119.62890625 238.75390625 C119.91301361 239.37048096 120.19712097 239.98705566 120.48983765 240.62231445 C123.43583779 246.99957768 126.49024388 253.32345055 129.5546875 259.64453125 C133.84407579 268.50414921 138.05335577 277.39531657 142.1796875 286.33203125 C147.51767264 297.89080316 152.95758974 309.39871736 158.4296875 320.89453125 C164.20712315 333.03553179 169.97658371 345.18000652 175.69073486 357.35095215 C176.34504722 358.74437942 176.99994543 360.13753177 177.65545654 361.53039551 C178.55329227 363.43872471 179.44889468 365.34808427 180.34375 367.2578125 C181.09712646 368.86329956 181.09712646 368.86329956 181.86572266 370.5012207 C185.03104474 377.53837516 185.66893227 385.84918789 182.92578125 393.1484375 C179.41678975 399.29604403 175.83277242 402.88516961 169.0546875 405.14453125 C156.35685722 406.80329086 143.91798429 402.54507073 131.75390625 399.44140625 C129.35432126 398.84105587 126.95439577 398.24206503 124.55415344 397.64434814 C118.22513057 396.06443002 111.90083441 394.46634594 105.57739258 392.86425781 C99.32316345 391.2828842 93.06476124 389.71823176 86.80664062 388.15234375 C68.6619161 383.60728781 50.51979511 379.05184619 32.39488888 374.42831039 C27.92546096 373.28939449 23.45448273 372.15664821 18.98322487 371.02494049 C16.90005824 370.4958843 14.81765763 369.9638014 12.73608971 369.42848969 C9.88424959 368.69517931 7.03001952 367.97198599 4.17504883 367.25097656 C3.34773821 367.03536324 2.52042759 366.81974991 1.66804695 366.59760284 C-5.12331165 364.90080362 -11.04790463 364.66802852 -17.8828125 366.45703125 C-18.84058594 366.70066406 -19.79835938 366.94429688 -20.78515625 367.1953125 C-24.01050064 368.11373064 -24.01050064 368.11373064 -27.29672241 369.48176575 C-33.21980839 371.71427517 -39.35177961 373.15594143 -45.48291016 374.69799805 C-46.84075601 375.04291639 -48.19851115 375.38819201 -49.55618286 375.73379517 C-53.22474352 376.66610244 -56.89484175 377.59220082 -60.56549501 378.5162313 C-62.86540549 379.09526827 -65.16506944 379.67527504 -67.46467209 380.25553322 C-74.67913772 382.07548534 -81.89462387 383.89131505 -89.11150897 385.70164937 C-97.40639144 387.78249038 -105.69760172 389.87721767 -113.98593104 391.98400563 C-120.41730474 393.61783809 -126.8518332 395.23882462 -133.28882253 396.85038882 C-137.12202938 397.81038001 -140.95372944 398.77558437 -144.7821846 399.75436974 C-148.38854513 400.6760188 -151.99861147 401.5814749 -155.61194992 402.47536087 C-157.54665686 402.9581157 -159.47730504 403.45704974 -161.40771484 403.95671082 C-171.03749174 406.31334092 -183.22096109 408.9791421 -192.26171875 403.5546875 C-197.07198072 399.52567457 -200.50634497 394.63852926 -201.2956543 388.35595703 C-201.8078096 377.59372235 -198.55726758 370.41503497 -193.7578125 361.01953125 C-193.01716448 359.51820939 -192.27949932 358.01541266 -191.54467773 356.51123047 C-190.05966599 353.47650112 -188.56290754 350.44806 -187.05664062 347.42382812 C-184.08307513 341.42924306 -181.29665691 335.3520125 -178.5078125 329.26953125 C-171.81633864 314.80306259 -164.99507306 300.39837349 -158.1803894 285.98968506 C-153.74450296 276.60855187 -149.32588569 267.21929031 -144.9128418 257.82739258 C-141.86632686 251.34488475 -138.81534346 244.86465285 -135.74452209 238.39361572 C-126.54854145 219.13097747 -126.54854145 219.13097747 -118.08862305 199.5390625 C-113.18621021 187.66523243 -107.46417809 176.13292655 -101.96276855 164.52877808 C-98.79222956 157.83555244 -95.67638821 151.11792808 -92.5703125 144.39453125 C-87.06526339 132.49666158 -81.45928319 120.64812608 -75.83798218 108.80487061 C-70.25292305 97.03669212 -64.71280541 85.24910576 -59.21655273 73.43920898 C-53.8477607 61.9095432 -48.41708148 50.40931816 -42.98022461 38.91162109 C-42.475821 37.84427734 -42.475821 37.84427734 -41.96122742 36.75537109 C-41.29237358 35.34191661 -40.62206839 33.92914795 -39.95027161 32.51708984 C-38.21943735 28.87315041 -36.52157127 25.21826601 -34.87011719 21.53759766 C-34.5252829 20.77900955 -34.18044861 20.02042145 -33.82516479 19.23884583 C-33.17510695 17.80668317 -32.53378805 16.37050328 -31.90359497 14.92948914 C-28.4775575 7.43263562 -24.02126595 1.82532472 -16.23828125 -1.19921875 C-10.50402448 -2.8403689 -5.52929671 -2.02899085 0 0 Z M-9.9453125 74.14453125 C-17.6141228 89.7796984 -25.16409477 105.45482445 -32.3203125 121.33203125 C-37.5856896 133.01032972 -42.96049174 144.63010401 -48.4453125 156.20703125 C-48.79920044 156.95452637 -49.15308838 157.70202148 -49.5177002 158.47216797 C-51.64136054 162.95757913 -53.76715049 167.44197869 -55.89343262 171.92614746 C-56.41411316 173.02424744 -56.41411316 173.02424744 -56.9453125 174.14453125 C-57.46599304 175.24263123 -57.46599304 175.24263123 -57.99719238 176.36291504 C-60.04130197 180.67544992 -62.0809484 184.99004962 -64.11499023 189.30734253 C-64.73498492 190.62134544 -65.35647904 191.93464229 -65.97973633 193.24710083 C-69.2973479 200.23409095 -72.43730313 207.25397556 -75.3359375 214.42578125 C-78.72338776 222.78987211 -82.51698128 230.92914554 -86.42114258 239.06274414 C-88.42010747 243.22757284 -90.40412526 247.39952801 -92.390625 251.5703125 C-92.78538025 252.39806183 -93.1801355 253.22581116 -93.58685303 254.0786438 C-96.92229615 261.07815929 -100.1960509 268.10455181 -103.4453125 275.14453125 C-108.2140673 285.46750987 -113.06610845 295.74870165 -117.94564819 306.01965332 C-126.10042382 323.17837403 -126.10042382 323.17837403 -134.1328125 340.39453125 C-134.54877686 341.28060059 -134.96474121 342.16666992 -135.39331055 343.07958984 C-136.30589606 345.0740521 -137.13634267 347.10584053 -137.9453125 349.14453125 C-137.6153125 349.80453125 -137.2853125 350.46453125 -136.9453125 351.14453125 C-128.35963502 349.3501656 -119.79881177 347.46914188 -111.25628853 345.47938824 C-107.28702781 344.55765329 -103.31590671 343.6654648 -99.32519531 342.84106445 C-81.20456653 339.91210325 -81.20456653 339.91210325 -66.24682617 330.62646484 C-63.9105774 326.82330189 -62.58562945 322.6932413 -61.19006348 318.47305298 C-58.77914652 312.02614945 -55.43532996 305.99764212 -52.28264618 299.88858604 C-50.18641276 295.80336786 -48.14309549 291.69188251 -46.09570312 287.58203125 C-45.25057387 285.88923955 -44.40527669 284.19653167 -43.55981445 282.50390625 C-42.92852631 281.23963806 -42.92852631 281.23963806 -42.28448486 279.9498291 C-40.58937944 276.55702498 -38.89129864 273.16571379 -37.19332314 269.7743454 C-26.13874389 247.69633042 -26.13874389 247.69633042 -15.31640625 225.50390625 C-14.87321548 224.58716125 -14.43002472 223.67041626 -13.97340393 222.72589111 C-13.57926804 221.89950134 -13.18513214 221.07311157 -12.77905273 220.22167969 C-12.44477768 219.52250427 -12.11050262 218.82332886 -11.76609802 218.10296631 C-10.94148124 216.13538967 -10.4047457 214.22499581 -9.9453125 212.14453125 C-7.27630159 214.5308073 -5.79898953 217.00707621 -4.15991211 220.17724609 C-3.60904434 221.23964508 -3.05817657 222.30204407 -2.49061584 223.39663696 C-1.88006835 224.59104609 -1.26993124 225.78566506 -0.66015625 226.98046875 C-0.34149031 227.60015911 -0.02282436 228.21984947 0.30549812 228.85831833 C6.16030087 240.2439016 11.81031311 251.72910322 17.44346237 263.22553253 C18.86845302 266.13164099 20.29640671 269.03627292 21.72549438 271.94036865 C22.20234491 272.90942013 22.67919544 273.8784716 23.17049599 274.87688828 C24.14055115 276.84780885 25.11081633 278.81862608 26.08128929 280.78934097 C28.55910729 285.82461581 31.02676093 290.86448442 33.47631836 295.91357422 C35.88950137 300.88610067 38.32779986 305.84556012 40.78373909 310.79710007 C41.70479823 312.6656248 42.61662036 314.53873389 43.51870537 316.41649246 C44.77041771 319.01891345 46.05364657 321.60333905 47.34545898 324.18603516 C47.7045636 324.95255402 48.06366821 325.71907288 48.43365479 326.50881958 C50.38521841 330.32279091 51.87697347 332.45184091 55.942276 334.03459167 C57.30461458 334.43461896 58.675705 334.80630721 60.0546875 335.14453125 C61.67721436 335.60499092 61.67721436 335.60499092 63.33251953 336.07475281 C64.39841309 336.33456436 65.46430664 336.59437592 66.5625 336.86206055 C67.78316162 337.16214523 69.00382324 337.46222992 70.26147461 337.77140808 C71.56751987 338.087295 72.87359144 338.40307317 74.1796875 338.71875 C75.53599338 339.05033798 76.89219292 339.38236124 78.24829102 339.71479797 C81.79157703 340.58218311 85.33626241 341.44370575 88.88128662 342.30395508 C92.5089725 343.1853822 96.13528329 344.07242952 99.76171875 344.95898438 C106.85805189 346.69295837 113.95587501 348.42073232 121.0546875 350.14453125 C119.43337714 345.05360616 117.74095471 340.14700546 115.375 335.34375 C114.86565918 334.30001221 114.35631836 333.25627441 113.83154297 332.1809082 C113.28643066 331.07577881 112.74131836 329.97064941 112.1796875 328.83203125 C110.99572339 326.40313697 109.81309876 323.97364681 108.6328125 321.54296875 C108.33200775 320.9244252 108.031203 320.30588165 107.72128296 319.66859436 C104.71225541 313.4676078 101.81482734 307.21651232 98.9296875 300.95703125 C93.21570892 288.58306282 87.38255389 276.26791769 81.52456665 263.96157837 C75.01897171 250.29459111 68.55290464 236.60968859 62.12963867 222.90380859 C59.17846351 216.61208302 56.20447228 210.34003304 53.0546875 204.14453125 C43.11090368 184.46460643 33.60644187 164.57864468 24.36157227 144.56176758 C17.52282069 129.78360044 10.50210661 115.09145925 3.50137329 100.38954163 C-0.66048674 91.64734715 -4.80354583 82.89625895 -8.9453125 74.14453125 C-9.2753125 74.14453125 -9.6053125 74.14453125 -9.9453125 74.14453125 Z " fill="#000000" transform="translate(308.9453125,97.85546875)"/>
<path d="M0 0 C3.49415 2.67842013 5.90396448 5.85464656 8.125 9.62890625 C8.47319322 10.19170225 8.82138643 10.75449825 9.18013096 11.33434868 C10.44757625 14.41226324 10.38625809 16.97863199 10.39915466 20.30667114 C10.40439134 20.97681932 10.40962802 21.6469675 10.41502339 22.33742321 C10.4300192 24.58194287 10.43072844 26.82623447 10.43139648 29.07080078 C10.43901851 30.68076461 10.44744609 32.2907248 10.45661926 33.90068054 C10.47857289 38.27494957 10.48736487 42.64914869 10.49244571 47.02346659 C10.49608969 49.75867319 10.50233012 52.4938615 10.5094471 55.22906113 C10.53394916 64.77836663 10.54699414 74.3276178 10.55053711 83.87695312 C10.55416812 92.76563486 10.58403026 101.65397038 10.62594169 110.54254639 C10.66069397 118.18179791 10.67608644 125.82093504 10.67678314 133.46026504 C10.67757458 138.01916792 10.68625103 142.57771853 10.71478081 147.13653946 C10.74104469 151.42948061 10.74312066 155.72177964 10.72712517 160.01476479 C10.72531698 161.584438 10.73194417 163.15414882 10.74794388 164.72374153 C10.83214115 173.52521151 10.59176476 181.30980435 5.125 188.62890625 C-0.8543202 194.25910371 -6.3613135 196.87307636 -14.64851379 196.89633179 C-15.31684398 196.9008629 -15.98517416 196.90539401 -16.67375678 196.91006243 C-18.90602923 196.9226901 -21.13805719 196.92108715 -23.37036133 196.91943359 C-24.97386488 196.92541991 -26.57736554 196.93222569 -28.18086243 196.93978882 C-32.53221983 196.9574464 -36.88349855 196.96214412 -41.23488832 196.96342039 C-43.95517623 196.96484278 -46.6754442 196.96911406 -49.39572716 196.97441483 C-58.89086551 196.99291488 -68.38594774 197.00108554 -77.88110352 196.99951172 C-86.72378624 196.99831059 -95.56622478 197.01940733 -104.40884572 197.05099905 C-112.00732182 197.0771758 -119.60571824 197.08787842 -127.20423907 197.0866009 C-131.73953156 197.08609164 -136.27460704 197.09175467 -140.80985451 197.112957 C-145.07729534 197.13236281 -149.3443127 197.132448 -153.61176872 197.11792374 C-155.17421209 197.11583737 -156.73668213 197.12052628 -158.2990799 197.13264465 C-166.38919697 197.19130823 -172.91619062 197.16810203 -179.875 192.62890625 C-180.761875 192.09265625 -181.64875 191.55640625 -182.5625 191.00390625 C-188.20447352 185.20944696 -190.22122753 179.16506045 -190.5625 171.12890625 C-190.26860567 162.58003881 -187.4050027 157.15890895 -181.4375 151.19140625 C-173.7783013 146.52116314 -167.85154574 146.20904264 -158.96313477 146.28833008 C-157.03039452 146.28767296 -157.03039452 146.28767296 -155.05860901 146.28700256 C-151.54247958 146.2861452 -148.02665996 146.30372848 -144.51060224 146.32472444 C-140.82975176 146.34353479 -137.14889344 146.3452451 -133.46800232 146.34880066 C-126.5053881 146.35810837 -119.54291595 146.38270477 -112.58036417 146.41284913 C-104.65050581 146.44643293 -96.72064051 146.46288913 -88.79072869 146.47793543 C-72.48540276 146.50925557 -56.18021954 146.5619911 -39.875 146.62890625 C-39.88053076 145.95267778 -39.88606152 145.27644932 -39.89175987 144.57972908 C-40.02450193 128.09452883 -40.12366837 111.60949875 -40.18587303 95.12388802 C-40.21675756 87.15140668 -40.25883363 79.17928297 -40.32763672 71.20703125 C-40.38760551 64.25507637 -40.42618841 57.3033806 -40.43953097 50.35117424 C-40.44732553 46.67287785 -40.46552865 42.99532247 -40.50938034 39.31726456 C-40.55803993 35.20222939 -40.55892875 31.08846679 -40.55615234 26.97314453 C-40.577724 25.76544907 -40.59929565 24.5577536 -40.621521 23.3134613 C-40.55434167 14.086639 -37.9945101 7.74841635 -31.4375 1.19140625 C-21.59251555 -4.81163305 -10.33084211 -5.96402233 0 0 Z " fill="#000000" transform="translate(589.875,403.37109375)"/>
<path d="M0 0 C3.49415 2.67842013 5.90396448 5.85464656 8.125 9.62890625 C8.47388716 10.21537052 8.82277431 10.80183479 9.18223381 11.40607071 C10.33987208 14.13552741 10.37110015 16.19582457 10.36550903 19.15911865 C10.36825836 20.2836998 10.37100769 21.40828094 10.37384033 22.56694031 C10.36664978 23.79620743 10.35945923 25.02547455 10.35205078 26.29199219 C10.35234283 27.58980118 10.35263489 28.88761017 10.35293579 30.2247467 C10.35350956 33.78023701 10.3417514 37.33559235 10.32778788 40.89105129 C10.31528453 44.60796359 10.31411033 48.324879 10.31173706 52.04180908 C10.30552113 59.07885841 10.28910878 66.11584559 10.26903808 73.15286756 C10.2466826 81.16489103 10.23568654 89.17691747 10.22564721 97.18896437 C10.20474265 113.66898138 10.16956448 130.14893588 10.125 146.62890625 C10.79607473 146.62429729 11.46714947 146.61968832 12.1585598 146.61493969 C28.51860608 146.50431821 44.87853326 146.42168088 61.23886681 146.36984539 C69.15075523 146.34410913 77.06239336 146.30904692 84.97412109 146.25170898 C91.8733375 146.20173294 98.77237257 146.16958197 105.67176497 146.15846378 C109.32201769 146.15196883 112.9717518 146.13680136 116.62183762 146.10025597 C120.70564114 146.05970315 124.78855414 146.05896586 128.87255859 146.0612793 C130.67007568 146.03431473 130.67007568 146.03431473 132.50390625 146.00680542 C140.018883 146.05274295 145.91430676 147.20271281 152.125 151.62890625 C154.46535695 154.13503156 156.38681954 156.67517392 158.125 159.62890625 C158.49753906 160.22316406 158.87007812 160.81742188 159.25390625 161.4296875 C161.6100016 167.37803584 160.98819992 175.54949071 159.28515625 181.625 C156.21702762 188.41207243 151.57392523 192.4997117 144.91943836 195.68445778 C141.59076592 196.80946366 138.8655838 196.88647058 135.35148621 196.89633179 C134.68315602 196.9008629 134.01482584 196.90539401 133.32624322 196.91006243 C131.09397077 196.9226901 128.86194281 196.92108715 126.62963867 196.91943359 C125.02613512 196.92541991 123.42263446 196.93222569 121.81913757 196.93978882 C117.46778017 196.9574464 113.11650145 196.96214412 108.76511168 196.96342039 C106.04482377 196.96484278 103.3245558 196.96911406 100.60427284 196.97441483 C91.10913449 196.99291488 81.61405226 197.00108554 72.11889648 196.99951172 C63.27621376 196.99831059 54.43377522 197.01940733 45.59115428 197.05099905 C37.99267818 197.0771758 30.39428176 197.08787842 22.79576093 197.0866009 C18.26046844 197.08609164 13.72539296 197.09175467 9.19014549 197.112957 C4.92270466 197.13236281 0.6556873 197.132448 -3.61176872 197.11792374 C-5.17421209 197.11583737 -6.73668213 197.12052628 -8.2990799 197.13264465 C-16.38919697 197.19130823 -22.91619062 197.16810203 -29.875 192.62890625 C-30.761875 192.09265625 -31.64875 191.55640625 -32.5625 191.00390625 C-40.51686771 182.83455563 -40.60311438 173.27275402 -40.5378418 162.50585938 C-40.54626828 160.89500244 -40.55679926 159.28415537 -40.56925964 157.67332458 C-40.59618566 153.32403371 -40.5916399 148.97531934 -40.57955909 144.62598228 C-40.57240029 140.98537956 -40.58094554 137.34488159 -40.58946449 133.70428705 C-40.60937784 125.11216858 -40.6038909 116.52032861 -40.58178711 107.92822266 C-40.55941944 99.08360705 -40.57703546 90.23972121 -40.61483639 81.3951745 C-40.64612676 73.78123516 -40.65396953 66.16752105 -40.64288265 58.55352545 C-40.63641431 54.01482074 -40.63830802 49.47653698 -40.66220665 44.93788147 C-40.68354145 40.66932037 -40.67537462 36.40178472 -40.64511299 32.13328743 C-40.63881437 30.573306 -40.64257654 29.01324399 -40.65752411 27.45332146 C-40.73944357 18.14489881 -39.96700695 11.05985224 -33.875 3.62890625 C-24.88430658 -5.36178717 -10.87478941 -6.27804454 0 0 Z " fill="#000000" transform="translate(39.875,403.37109375)"/>
<path d="M0 0 C1.00294185 -0.00913666 1.00294185 -0.00913666 2.02614516 -0.01845789 C4.24764343 -0.03499399 6.46856259 -0.03032582 8.69010925 -0.0255127 C10.29066559 -0.03285859 11.89121664 -0.04144634 13.49176025 -0.05117798 C17.82663681 -0.0733499 22.16132302 -0.07632677 26.49624848 -0.07443047 C30.12176811 -0.07431055 33.74724773 -0.08288363 37.37275618 -0.09120798 C45.93071627 -0.11042715 54.48857882 -0.11333157 63.04655457 -0.10656738 C71.8586312 -0.09993014 80.67028887 -0.12278151 89.48228055 -0.15988111 C97.06215754 -0.19062885 104.64190011 -0.20193258 112.22183818 -0.1980443 C116.74267401 -0.19598174 121.26318387 -0.20137922 125.78396034 -0.22593689 C130.03839029 -0.24828512 134.29214183 -0.24625974 138.54657555 -0.22600937 C140.10172941 -0.22261334 141.65692966 -0.22762742 143.21202087 -0.24199295 C151.97011374 -0.31727045 159.72110011 -0.04889188 166.99943542 5.39440918 C169.33213687 7.90640604 171.26150098 10.44109491 172.99943542 13.39440918 C173.34762864 13.95720518 173.69582186 14.52000118 174.05456638 15.09985161 C175.32201167 18.17776617 175.26069351 20.74413492 175.27359009 24.07217407 C175.27882677 24.74232225 175.28406345 25.41247043 175.28945881 26.10292614 C175.30445462 28.3474458 175.30516387 30.5917374 175.30583191 32.83630371 C175.31345394 34.44626754 175.32188151 36.05622773 175.33105469 37.66618347 C175.35300831 42.0404525 175.36180029 46.41465161 175.36688113 50.78896952 C175.37052512 53.52417612 175.37676555 56.25936443 175.38388252 58.99456406 C175.40838458 68.54386956 175.42142957 78.09312073 175.42497253 87.64245605 C175.42860354 96.53113779 175.45846569 105.41947331 175.50037712 114.30804932 C175.53512939 121.94730084 175.55052187 129.58643797 175.55121857 137.22576797 C175.55201001 141.78467085 175.56068645 146.34322146 175.58921623 150.90204239 C175.61548011 155.19498354 175.61755609 159.48728257 175.60156059 163.78026772 C175.59975241 165.34994093 175.6063796 166.91965175 175.6223793 168.48924446 C175.70657657 177.29071444 175.46620018 185.07530728 169.99943542 192.39440918 C162.75401922 199.21677737 156.31719078 200.85918279 146.45256042 200.71472168 C141.84199903 200.28704517 138.75645027 199.01515612 134.99943542 196.39440918 C134.11256042 195.85815918 133.22568542 195.32190918 132.31193542 194.76940918 C126.15256534 188.44356963 124.43010816 181.40660717 124.37733459 172.77331543 C124.39531097 171.5749707 124.41328735 170.37662598 124.43180847 169.14196777 C124.43071327 167.2085704 124.43071327 167.2085704 124.42959595 165.2361145 C124.42817238 161.73232885 124.45738714 158.22941434 124.49246573 154.7258296 C124.52390841 151.05303436 124.52667397 147.38021498 124.53259277 143.70730591 C124.54807904 136.76591856 124.58903581 129.82492907 124.63934022 122.88371623 C124.69539724 114.97558963 124.7227611 107.06744315 124.7478174 99.15916705 C124.79995715 82.90401557 124.88779651 66.6492633 124.99943542 50.39440918 C124.32651711 50.39809635 123.65359879 50.40178352 122.960289 50.40558243 C106.56754319 50.49401731 90.17487318 50.56015945 73.78194427 50.60165787 C65.85435404 50.62226093 57.92692328 50.65033812 49.99943542 50.69616699 C43.08778699 50.73610415 36.17625409 50.7618584 29.26449347 50.77076316 C25.60656267 50.77596635 21.94896232 50.78814797 18.2911377 50.81732941 C14.20221963 50.84968378 10.11387179 50.8503642 6.02482605 50.84851074 C4.21652313 50.8700824 4.21652313 50.8700824 2.37168884 50.89208984 C-4.59645476 50.85793044 -9.04894445 50.07336606 -15.00056458 46.39440918 C-15.88743958 45.85815918 -16.77431458 45.32190918 -17.68806458 44.76940918 C-23.33003809 38.97494989 -25.3467921 32.93056338 -25.68806458 24.89440918 C-25.39417024 16.34554174 -22.53056728 10.92441188 -16.56306458 4.95690918 C-10.95086711 1.53483755 -6.58895855 0.0206465 0 0 Z " fill="#000000" transform="translate(425.0005645751953,-0.3944091796875)"/>
<path d="M0 0 C1.00294185 -0.00913666 1.00294185 -0.00913666 2.02614516 -0.01845789 C4.24764343 -0.03499399 6.46856259 -0.03032582 8.69010925 -0.0255127 C10.29066559 -0.03285859 11.89121664 -0.04144634 13.49176025 -0.05117798 C17.82663681 -0.0733499 22.16132302 -0.07632677 26.49624848 -0.07443047 C30.12176811 -0.07431055 33.74724773 -0.08288363 37.37275618 -0.09120798 C45.93071627 -0.11042715 54.48857882 -0.11333157 63.04655457 -0.10656738 C71.8586312 -0.09993014 80.67028887 -0.12278151 89.48228055 -0.15988111 C97.06215754 -0.19062885 104.64190011 -0.20193258 112.22183818 -0.1980443 C116.74267401 -0.19598174 121.26318387 -0.20137922 125.78396034 -0.22593689 C130.03839029 -0.24828512 134.29214183 -0.24625974 138.54657555 -0.22600937 C140.10172941 -0.22261334 141.65692966 -0.22762742 143.21202087 -0.24199295 C151.97011374 -0.31727045 159.72110011 -0.04889188 166.99943542 5.39440918 C169.33213687 7.90640604 171.26150098 10.44109491 172.99943542 13.39440918 C173.37197449 13.98866699 173.74451355 14.5829248 174.12834167 15.19519043 C176.48443702 21.14353877 175.86263535 29.31499364 174.15959167 35.39050293 C171.09028949 42.18017141 166.42732067 46.33951299 159.72131062 49.45164299 C156.75990949 50.47737292 154.51366134 50.64086822 151.38693237 50.63491821 C150.26939072 50.63766754 149.15184906 50.64041687 148.0004425 50.64324951 C146.7841214 50.63605896 145.56780029 50.62886841 144.31462097 50.62145996 C143.02641953 50.62175201 141.73821808 50.62204407 140.41098022 50.62234497 C136.88653924 50.62291799 133.36223483 50.61117197 129.83782554 50.59719706 C126.1516157 50.5846812 122.46540261 50.58351852 118.7791748 50.58114624 C111.80236562 50.57493398 104.82561923 50.55852662 97.84883767 50.53844726 C89.90450445 50.51608034 81.9601682 50.50509284 74.01581132 50.49505639 C57.67698262 50.47416016 41.33821704 50.43898913 24.99943542 50.39440918 C25.00404439 51.06548391 25.00865335 51.73655865 25.01340199 52.42796898 C25.12402347 68.78801526 25.20666079 85.14794244 25.25849628 101.50827599 C25.28423254 109.42016441 25.31929476 117.33180254 25.37663269 125.24353027 C25.42660873 132.14274668 25.4587597 139.04178175 25.4698779 145.94117415 C25.47637285 149.59142687 25.49154031 153.24116098 25.52808571 156.8912468 C25.56863853 160.97505032 25.56937582 165.05796332 25.56706238 169.14196777 C25.59402695 170.93948486 25.59402695 170.93948486 25.62153625 172.77331543 C25.57555747 180.2950402 24.415359 186.17230095 19.99943542 192.39440918 C12.7812911 199.23150726 6.29545519 200.85886449 -3.54743958 200.71472168 C-8.15800097 200.28704517 -11.24354973 199.01515612 -15.00056458 196.39440918 C-15.88743958 195.85815918 -16.77431458 195.32190918 -17.68806458 194.76940918 C-25.64243228 186.60005856 -25.72867896 177.03825695 -25.66340637 166.2713623 C-25.67183286 164.66050537 -25.68236384 163.0496583 -25.69482422 161.43882751 C-25.72175023 157.08953664 -25.71720447 152.74082227 -25.70512366 148.39148521 C-25.69796487 144.75088249 -25.70651011 141.11038452 -25.71502906 137.46978998 C-25.73494242 128.87767151 -25.72945548 120.28583154 -25.70735168 111.69372559 C-25.68498401 102.84910998 -25.70260004 94.00522414 -25.74040097 85.16067743 C-25.77169134 77.54673809 -25.7795341 69.93302398 -25.76844722 62.31902838 C-25.76197888 57.78032367 -25.76387259 53.24203991 -25.78777122 48.7033844 C-25.80910603 44.4348233 -25.8009392 40.16728765 -25.77067757 35.89879036 C-25.76437894 34.33880893 -25.76814112 32.77874692 -25.78308868 31.21882439 C-25.86500815 21.91040174 -25.09257153 14.82535517 -19.00056458 7.39440918 C-13.59912382 1.99296843 -7.48898277 0.02346673 0 0 Z " fill="#000000" transform="translate(25.000564575195313,-0.3944091796875)"/>
</svg>
